<svg width="207" height="258" viewBox="0 0 207 258" fill="none" xmlns="http://www.w3.org/2000/svg">
<path d="M32.62 189.75V184.92H28.2V189.75H26V178.15H28.2V183H32.62V178.14H34.88V189.74L32.62 189.75ZM43.14 189.75H41.35L41.19 189.18C40.4127 189.664 39.5155 189.92 38.6 189.92C37.01 189.92 36.33 188.92 36.33 187.43C36.33 185.73 37.1 185.07 38.87 185.07H41V184.2C41 183.27 40.73 182.94 39.34 182.94C38.527 182.951 37.7168 183.038 36.92 183.2L36.65 181.6C37.6293 181.343 38.6375 181.212 39.65 181.21C42.39 181.21 43.19 182.14 43.19 184.21L43.14 189.75ZM41 186.59H39.35C38.63 186.59 38.44 186.77 38.44 187.41C38.44 188.05 38.63 188.25 39.31 188.25C39.8873 188.247 40.4545 188.099 40.96 187.82L41 186.59ZM47.75 189.92C46.7323 189.903 45.7223 189.741 44.75 189.44L45.05 187.84C45.8971 188.074 46.7713 188.195 47.65 188.2C48.65 188.2 48.76 187.99 48.76 187.36C48.76 186.73 48.65 186.59 47.23 186.26C45.11 185.76 44.86 185.26 44.86 183.63C44.86 182 45.62 181.21 48.11 181.21C48.9881 181.209 49.8635 181.307 50.72 181.5L50.51 183.17C49.7172 183.03 48.9149 182.949 48.11 182.93C47.11 182.93 47 183.13 47 183.65C47 184.17 47.06 184.37 48.24 184.65C50.67 185.27 50.9 185.58 50.9 187.3C50.9 189.02 50.34 189.92 47.71 189.92H47.75ZM57.75 189.75V183.91C57.75 183.46 57.56 183.24 57.06 183.24C56.2624 183.326 55.4886 183.564 54.78 183.94V189.75H52.55V178L54.73 178.32V182C55.7257 181.512 56.812 181.236 57.92 181.19C59.37 181.19 59.92 182.19 59.92 183.66V189.73L57.75 189.75ZM61.75 180.2V178.2H63.9V180.2H61.75ZM61.75 189.75V181.38H63.9V189.75H61.75ZM65.68 181.45C65.68 179.35 66.95 178.13 69.92 178.13C71.0078 178.131 72.0918 178.258 73.15 178.51L72.9 180.38C71.9393 180.206 70.9662 180.109 69.99 180.09C68.43 180.09 67.93 180.61 67.93 181.83V186.22C67.93 187.44 68.43 187.96 69.99 187.96C70.9662 187.941 71.9393 187.844 72.9 187.67L73.15 189.54C72.0918 189.792 71.0078 189.919 69.92 189.92C66.92 189.92 65.68 188.7 65.68 186.6V181.45ZM77.97 189.92C74.97 189.92 74.18 188.34 74.18 186.62V184.51C74.18 182.79 74.99 181.21 77.97 181.21C80.95 181.21 81.77 182.79 81.77 184.51V186.62C81.74 188.34 80.93 189.92 77.94 189.92H77.97ZM77.97 183C76.81 183 76.36 183.49 76.36 184.44V186.69C76.36 187.63 76.81 188.13 77.97 188.13C79.13 188.13 79.58 187.63 79.58 186.69V184.44C79.55 183.49 79.11 183 77.94 183H77.97ZM87.91 183.13C87.1108 183.479 86.3387 183.887 85.6 184.35V189.75H83.39V181.38H85.23L85.38 182.31C86.0935 181.847 86.863 181.478 87.67 181.21L87.91 183.13ZM96.61 187C96.61 188.86 95.75 190 93.73 190C92.9478 189.989 92.168 189.909 91.4 189.76V193.18L89.22 193.5V181.5H91L91.22 182.21C92.0201 181.632 92.9832 181.324 93.97 181.33C95.73 181.33 96.66 182.33 96.66 184.23L96.61 187ZM91.4 187.95C92.0348 188.085 92.6811 188.159 93.33 188.17C94.12 188.17 94.42 187.81 94.42 187.05V184.1C94.42 183.41 94.16 183.04 93.35 183.04C92.6342 183.064 91.9474 183.328 91.4 183.79V187.95Z" fill="black"/>
<path d="M49.2806 198.17H56.0506L45.7706 232.56H36.1706L25.8906 198.17H32.6606L41.0006 226.83L49.2806 198.17Z" fill="black"/>
<path d="M74.8399 232.56H69.6799L69.2199 230.86C66.9902 232.308 64.3886 233.08 61.7299 233.08C57.1299 233.08 55.1699 229.93 55.1699 225.59C55.1699 220.48 57.3899 218.52 62.4999 218.52H68.4999V215.88C68.4999 213.09 67.7299 212.11 63.6999 212.11C61.3462 212.133 59.0009 212.394 56.6999 212.89L55.9299 208.09C58.7368 207.309 61.6362 206.908 64.5499 206.9C72.4499 206.9 74.7699 209.69 74.7699 215.99L74.8399 232.56ZM68.5399 223.06H63.8999C61.8299 223.06 61.2599 223.63 61.2599 225.54C61.2599 227.29 61.8299 228.07 63.7899 228.07C65.4567 228.048 67.0906 227.604 68.5399 226.78V223.06Z" fill="black"/>
<path d="M86.8699 225.8C86.4791 225.99 86.1395 226.27 85.8802 226.618C85.6208 226.966 85.4492 227.372 85.3799 227.8C85.3799 228.47 85.7899 228.8 86.7699 228.89C89.5599 229.2 91.1099 229.35 94.0499 229.66C98.1299 230.12 99.4199 232.14 99.4199 235.75C99.4199 241.12 97.4199 243.24 88.0599 243.24C84.7823 243.264 81.5163 242.847 78.3499 242L79.1299 237.3C81.8984 238.006 84.743 238.369 87.5999 238.38C92.5999 238.38 93.5999 238.02 93.5999 236.38C93.5999 234.74 93.1299 234.57 91.2199 234.38C88.3299 234.07 87.1399 233.91 83.9399 233.55C80.3799 233.14 78.9399 231.95 78.9399 228.75C78.993 227.873 79.2618 227.023 79.7223 226.275C80.1828 225.526 80.8209 224.903 81.5799 224.46C79.2499 223.07 78.1699 220.74 78.1699 217.7V215.32C78.2699 210.11 81.0099 206.96 88.2899 206.96C89.7357 206.949 91.1771 207.12 92.5799 207.47H100.32V210.62C99.4399 210.88 98.4099 211.14 97.5299 211.4C98.1294 212.619 98.431 213.963 98.4099 215.32V217.7C98.4099 222.81 95.3099 225.91 88.2899 225.91C87.815 225.899 87.341 225.862 86.8699 225.8ZM88.3199 212C85.2199 212 84.1399 213.13 84.1399 215.51V217.42C84.1399 219.9 85.3799 220.83 88.3199 220.83C91.2599 220.83 92.5499 219.83 92.5499 217.42V215.51C92.5499 213.09 91.4699 212 88.3199 212Z" fill="black"/>
<path d="M116.151 212.68C113.84 213.73 111.613 214.957 109.491 216.35V232.56H103.191V207.41H108.511L108.921 210.2C110.971 208.816 113.193 207.707 115.531 206.9L116.151 212.68Z" fill="black"/>
<path d="M137.221 232.56H132.051L131.591 230.86C129.362 232.31 126.76 233.081 124.101 233.08C119.511 233.08 117.541 229.93 117.541 225.59C117.541 220.48 119.761 218.52 124.881 218.52H130.881V215.88C130.881 213.09 130.101 212.11 126.081 212.11C123.727 212.132 121.382 212.394 119.081 212.89L118.301 208.09C121.134 207.303 124.061 206.903 127.001 206.9C134.901 206.9 137.231 209.69 137.231 215.99L137.221 232.56ZM130.921 223.06H126.271C124.211 223.06 123.641 223.63 123.641 225.54C123.641 227.29 124.211 228.07 126.171 228.07C127.838 228.046 129.471 227.602 130.921 226.78V223.06Z" fill="black"/>
<path d="M156.001 232.56V215C156.001 213.66 155.431 213 154.001 213C151.694 213.261 149.463 213.982 147.441 215.12V232.57H141.141V207.41H145.941L146.561 209.53C149.698 207.962 153.127 207.066 156.631 206.9C160.811 206.9 162.311 209.84 162.311 214.33V232.56H156.001Z" fill="black"/>
<path d="M180.8 232.1C179.023 232.73 177.155 233.067 175.27 233.1C170.68 233.1 168.35 230.93 168.35 226.44V212.44H164.58V207.44H168.35V201.2L174.65 200.32V207.44H181.11L180.69 212.44H174.69V225.61C174.653 225.915 174.687 226.224 174.789 226.514C174.891 226.804 175.058 227.066 175.277 227.281C175.497 227.495 175.763 227.656 176.054 227.752C176.346 227.847 176.656 227.874 176.96 227.83C178.028 227.797 179.088 227.622 180.11 227.31L180.8 232.1Z" fill="black"/>
<path d="M149.08 19.7002L120.75 36.0502V46.1002L103.49 86.6902L86.2399 46.1002V36.0502L57.9099 19.7002L40.6699 29.6502V41.2202L79.0499 135.19L103.49 149.31L127.94 135.19L166.31 41.2202V29.6502L149.08 19.7002Z" fill="#0E67ED"/>
<path d="M166.31 29.6504L137.99 46.0104V56.0504L114.98 107.47L103.49 114.1V149.31L127.94 135.19L166.31 41.2204V29.6504Z" fill="#0850C5"/>
<path d="M86.24 46.1008V36.0508L69 46.0108V56.0508L92.01 107.471L103.49 100.831V86.6908L86.24 46.1008Z" fill="#0850C5"/>
</svg>
